<mxfile host="app.diagrams.net" modified="2020-10-29T18:25:02.711Z" agent="5.0 (Windows NT 10.0; Win64; x64) AppleWebKit/537.36 (KHTML, like Gecko) Chrome/86.0.4240.111 Safari/537.36" etag="TTSjhaCTn7JLMWjjy35u" version="13.8.7" type="github">
  <diagram id="AWRNQfiryvkGdooIhhJX" name="Page-1">
    <mxGraphModel dx="1043" dy="681" grid="1" gridSize="10" guides="1" tooltips="1" connect="1" arrows="1" fold="1" page="1" pageScale="1" pageWidth="850" pageHeight="1100" math="0" shadow="0">
      <root>
        <mxCell id="0" />
        <mxCell id="1" parent="0" />
        <mxCell id="pgBncRfJoedopPcMDxh2-1" value="" style="rounded=1;whiteSpace=wrap;html=1;" vertex="1" parent="1">
          <mxGeometry x="80" y="140" width="560" height="310" as="geometry" />
        </mxCell>
        <mxCell id="pgBncRfJoedopPcMDxh2-2" value="&lt;font style=&quot;font-size: 21px&quot;&gt;my-kubernetes-pod&lt;/font&gt;" style="text;html=1;strokeColor=none;fillColor=none;align=center;verticalAlign=middle;whiteSpace=wrap;rounded=0;" vertex="1" parent="1">
          <mxGeometry x="90" y="150" width="200" height="40" as="geometry" />
        </mxCell>
        <mxCell id="pgBncRfJoedopPcMDxh2-12" value="" style="edgeStyle=none;rounded=0;orthogonalLoop=1;jettySize=auto;html=1;entryX=0;entryY=0.5;entryDx=0;entryDy=0;strokeColor=#FF0000;" edge="1" parent="1" source="pgBncRfJoedopPcMDxh2-3" target="pgBncRfJoedopPcMDxh2-6">
          <mxGeometry relative="1" as="geometry" />
        </mxCell>
        <mxCell id="pgBncRfJoedopPcMDxh2-3" value="" style="rounded=0;whiteSpace=wrap;html=1;" vertex="1" parent="1">
          <mxGeometry x="130" y="217" width="170" height="60" as="geometry" />
        </mxCell>
        <mxCell id="pgBncRfJoedopPcMDxh2-4" value="app-conteiner&lt;br&gt;name: my-container&lt;br&gt;id: foo" style="text;html=1;strokeColor=none;fillColor=none;align=left;verticalAlign=middle;whiteSpace=wrap;rounded=0;" vertex="1" parent="1">
          <mxGeometry x="143" y="238" width="125" height="20" as="geometry" />
        </mxCell>
        <mxCell id="pgBncRfJoedopPcMDxh2-10" style="rounded=0;orthogonalLoop=1;jettySize=auto;html=1;exitX=0.5;exitY=1;exitDx=0;exitDy=0;entryX=0.5;entryY=0;entryDx=0;entryDy=0;" edge="1" parent="1" source="pgBncRfJoedopPcMDxh2-5" target="pgBncRfJoedopPcMDxh2-9">
          <mxGeometry relative="1" as="geometry" />
        </mxCell>
        <mxCell id="pgBncRfJoedopPcMDxh2-5" value="/var/lib/docker/containers/foo/foo-json.log" style="text;html=1;fillColor=none;align=center;verticalAlign=middle;whiteSpace=wrap;rounded=0;strokeColor=#000000;" vertex="1" parent="1">
          <mxGeometry x="95" y="277" width="240" height="40" as="geometry" />
        </mxCell>
        <mxCell id="pgBncRfJoedopPcMDxh2-6" value="" style="rounded=0;whiteSpace=wrap;html=1;" vertex="1" parent="1">
          <mxGeometry x="395" y="217" width="170" height="60" as="geometry" />
        </mxCell>
        <mxCell id="pgBncRfJoedopPcMDxh2-7" value="app-conteiner&lt;br&gt;name: my-container&lt;br&gt;id: foo" style="text;html=1;strokeColor=none;fillColor=none;align=left;verticalAlign=middle;whiteSpace=wrap;rounded=0;" vertex="1" parent="1">
          <mxGeometry x="410" y="227" width="120" height="40" as="geometry" />
        </mxCell>
        <mxCell id="pgBncRfJoedopPcMDxh2-11" style="edgeStyle=none;rounded=0;orthogonalLoop=1;jettySize=auto;html=1;exitX=0.5;exitY=1;exitDx=0;exitDy=0;entryX=0.5;entryY=0;entryDx=0;entryDy=0;fillColor=#f8cecc;strokeColor=#FF0000;" edge="1" parent="1" source="pgBncRfJoedopPcMDxh2-8" target="pgBncRfJoedopPcMDxh2-9">
          <mxGeometry relative="1" as="geometry" />
        </mxCell>
        <mxCell id="pgBncRfJoedopPcMDxh2-8" value="/var/lib/docker/containers/bar/bar-json.log" style="text;html=1;fillColor=none;align=center;verticalAlign=middle;whiteSpace=wrap;rounded=0;strokeColor=#000000;" vertex="1" parent="1">
          <mxGeometry x="360" y="277" width="240" height="40" as="geometry" />
        </mxCell>
        <mxCell id="pgBncRfJoedopPcMDxh2-9" value="/var/log/pods/&amp;lt;namespace&amp;gt;_&amp;lt;pod_name&amp;gt;_&amp;lt;pod_id&amp;gt;/&amp;lt;container_name&amp;gt;" style="text;whiteSpace=wrap;html=1;strokeColor=#000000;align=center;" vertex="1" parent="1">
          <mxGeometry x="160" y="395" width="400" height="30" as="geometry" />
        </mxCell>
        <mxCell id="pgBncRfJoedopPcMDxh2-13" value="&lt;font color=&quot;#ff0000&quot;&gt;Restart&lt;/font&gt;" style="text;html=1;strokeColor=none;fillColor=none;align=center;verticalAlign=middle;whiteSpace=wrap;rounded=0;" vertex="1" parent="1">
          <mxGeometry x="330" y="227" width="40" height="20" as="geometry" />
        </mxCell>
        <mxCell id="pgBncRfJoedopPcMDxh2-14" value="&lt;font color=&quot;#cc0000&quot;&gt;Fail in symlink update&lt;/font&gt;" style="text;html=1;strokeColor=none;fillColor=none;align=center;verticalAlign=middle;whiteSpace=wrap;rounded=0;" vertex="1" parent="1">
          <mxGeometry x="460" y="345" width="120" height="20" as="geometry" />
        </mxCell>
        <mxCell id="pgBncRfJoedopPcMDxh2-17" style="edgeStyle=none;rounded=0;orthogonalLoop=1;jettySize=auto;html=1;exitX=0.5;exitY=0;exitDx=0;exitDy=0;entryX=0.173;entryY=0.978;entryDx=0;entryDy=0;entryPerimeter=0;endArrow=none;endFill=0;startArrow=classic;startFill=1;" edge="1" parent="1" source="pgBncRfJoedopPcMDxh2-15" target="pgBncRfJoedopPcMDxh2-9">
          <mxGeometry relative="1" as="geometry" />
        </mxCell>
        <mxCell id="pgBncRfJoedopPcMDxh2-21" style="edgeStyle=none;rounded=0;orthogonalLoop=1;jettySize=auto;html=1;exitX=0.5;exitY=1;exitDx=0;exitDy=0;entryX=0.5;entryY=0;entryDx=0;entryDy=0;startArrow=none;startFill=0;endArrow=classic;endFill=1;strokeColor=#000000;" edge="1" parent="1" source="pgBncRfJoedopPcMDxh2-15" target="pgBncRfJoedopPcMDxh2-19">
          <mxGeometry relative="1" as="geometry" />
        </mxCell>
        <mxCell id="pgBncRfJoedopPcMDxh2-15" value="FluentD" style="rounded=1;whiteSpace=wrap;html=1;strokeColor=#000000;" vertex="1" parent="1">
          <mxGeometry x="170" y="480" width="120" height="60" as="geometry" />
        </mxCell>
        <mxCell id="pgBncRfJoedopPcMDxh2-16" value="FileBeat" style="rounded=1;whiteSpace=wrap;html=1;strokeColor=#000000;" vertex="1" parent="1">
          <mxGeometry x="425" y="480" width="120" height="60" as="geometry" />
        </mxCell>
        <mxCell id="pgBncRfJoedopPcMDxh2-18" style="edgeStyle=none;rounded=0;orthogonalLoop=1;jettySize=auto;html=1;exitX=0.5;exitY=0;exitDx=0;exitDy=0;endArrow=none;endFill=0;startArrow=classic;startFill=1;entryX=0.81;entryY=1.007;entryDx=0;entryDy=0;entryPerimeter=0;" edge="1" parent="1" source="pgBncRfJoedopPcMDxh2-16" target="pgBncRfJoedopPcMDxh2-9">
          <mxGeometry relative="1" as="geometry">
            <mxPoint x="480.13" y="490" as="sourcePoint" />
            <mxPoint x="488" y="425" as="targetPoint" />
          </mxGeometry>
        </mxCell>
        <mxCell id="pgBncRfJoedopPcMDxh2-19" value="ELK Existing Cluster" style="rounded=0;whiteSpace=wrap;html=1;strokeColor=#000000;" vertex="1" parent="1">
          <mxGeometry x="170" y="570" width="120" height="60" as="geometry" />
        </mxCell>
        <mxCell id="pgBncRfJoedopPcMDxh2-20" value="ELK New Cluster" style="rounded=0;whiteSpace=wrap;html=1;strokeColor=#000000;" vertex="1" parent="1">
          <mxGeometry x="425" y="570" width="120" height="60" as="geometry" />
        </mxCell>
        <mxCell id="pgBncRfJoedopPcMDxh2-22" style="edgeStyle=none;rounded=0;orthogonalLoop=1;jettySize=auto;html=1;startArrow=none;startFill=0;endArrow=classic;endFill=1;strokeColor=#000000;entryX=0.5;entryY=0;entryDx=0;entryDy=0;exitX=0.5;exitY=1;exitDx=0;exitDy=0;" edge="1" parent="1" source="pgBncRfJoedopPcMDxh2-16" target="pgBncRfJoedopPcMDxh2-20">
          <mxGeometry relative="1" as="geometry">
            <mxPoint x="479" y="550" as="sourcePoint" />
            <mxPoint x="479" y="630" as="targetPoint" />
          </mxGeometry>
        </mxCell>
      </root>
    </mxGraphModel>
  </diagram>
</mxfile>
